<?xml version="1.0" encoding="utf-8"?>
<!-- Generator: Adobe Illustrator 23.0.1, SVG Export Plug-In . SVG Version: 6.00 Build 0)  -->
<svg version="1.1" id="Layer_1" xmlns="http://www.w3.org/2000/svg" xmlns:xlink="http://www.w3.org/1999/xlink" x="0px" y="0px"
	 viewBox="0 0 290.73 233.98" style="enable-background:new 0 0 290.73 233.98;" xml:space="preserve">
<style type="text/css">
	.st0{fill:#121821;}
	.st1{fill:#FFFFFF;}
	.st2{fill:none;stroke:#FFFFFF;stroke-width:2;stroke-miterlimit:10;}
	.st3{fill:url(#SVGID_1_);}
	.st4{fill:url(#SVGID_2_);}
	.st5{fill:#1E232D;}
	.st6{font-family:'Karla-Bold';}
	.st7{font-size:87.5977px;}
</style>
<g>
	<g>
		<path class="st1" d="M103.7,62.5h10.42V20.83H103.7V62.5z M134.95,36.46h-15.63v10.42h15.63V62.5h10.42V20.83h-10.42V36.46z
			 M171.41,20.83h-15.63v10.42h15.63c3.13,0,5.21,2.08,5.21,5.21v10.42c0,3.13-2.08,5.21-5.21,5.21h-15.63V62.5h15.63
			c8.85,0,15.63-6.77,15.63-15.63V36.46C187.03,27.6,180.26,20.83,171.41,20.83z"/>
		<path class="st1" d="M207.87,0h-125v83.33h36.46v10.42h52.08V83.33h36.46V0z M197.45,72.92H93.28v-62.5h104.17V72.92z"/>
	</g>
	<text transform="matrix(1 0 0 1 2.441406e-04 211.9931)" class="st1 st6 st7">Gallery</text>
	<polyline class="st1" points="123.94,36.46 106.87,36.46 106.87,46.88 121.11,46.88 	"/>
</g>
</svg>
